<?xml version="1.0" standalone="no"?>
<!DOCTYPE svg PUBLIC "-//W3C//DTD SVG 20010904//EN"
 "http://www.w3.org/TR/2001/REC-SVG-20010904/DTD/svg10.dtd">
<svg version="1.0" xmlns="http://www.w3.org/2000/svg"
 width="500.000000pt" height="500.000000pt" viewBox="0 0 500.000000 500.000000"
 preserveAspectRatio="xMidYMid meet">
<metadata>
Created by potrace 1.11, written by Peter Selinger 2001-2013
</metadata>
<g transform="translate(0.000000,500.000000) scale(0.100000,-0.100000)"
fill="#000000" stroke="none">
<path d="M2337 3604 c-1 -1 -38 -4 -82 -7 -188 -14 -376 -80 -540 -191 -35
-24 -400 -380 -888 -866 l-828 -825 48 -43 c199 -180 469 -282 742 -280 92 1
135 6 221 24 14 3 38 7 53 10 87 16 256 97 367 175 50 35 336 314 882 860 444
444 808 812 808 817 0 18 -192 172 -215 172 -3 0 -22 10 -43 23 -93 57 -279
111 -430 125 -51 4 -94 7 -95 6z"/>
<path d="M4218 3606 c-1 -2 -41 -6 -88 -10 -99 -7 -122 -11 -210 -36 -144 -40
-290 -115 -399 -205 -46 -37 -1641 -1632 -1641 -1641 0 -4 17 -23 38 -42 142
-131 352 -231 557 -266 79 -14 298 -15 360 -2 17 4 44 9 60 12 29 6 103 29
135 41 8 3 20 7 25 8 30 7 218 107 235 125 3 3 23 18 45 35 22 16 406 395 853
842 l813 812 -43 38 c-24 21 -45 40 -48 43 -3 3 -33 24 -67 48 -144 99 -353
175 -521 187 -42 4 -82 8 -89 10 -6 2 -13 2 -15 1z"/>
</g>
</svg>
