<svg xmlns="http://www.w3.org/2000/svg" viewBox="0 0 900 900"><defs><style>.cls-1{fill:#d7e2e6}.cls-2{fill:#aaa}</style></defs><g id="Layer_2" data-name="Layer 2"><g id="Layer"><path class="cls-1" d="M496.2 10a5.5 5.5 0 104.9 6 5.5 5.5 0 00-4.9-6zM542 17.3a5.5 5.5 0 104.2 6.5 5.5 5.5 0 00-4.2-6.5zM586.7 29.3a5.5 5.5 0 103.5 6.9 5.5 5.5 0 00-3.5-6.9zM630 45.9a5.5 5.5 0 102.7 7.2 5.5 5.5 0 00-2.8-7.2zM710 92.1a5.5 5.5 0 101.2 7.7A5.5 5.5 0 00710 92zM738.3 121.7a5.5 5.5 0 107.7-.4 5.5 5.5 0 00-7.7.4zM771 153.6a5.5 5.5 0 107.7.4 5.5 5.5 0 00-7.7-.4zM800.2 188.8a5.5 5.5 0 107.7 1.2 5.5 5.5 0 00-7.7-1.2zM846.9 267.3a5.5 5.5 0 107.2 2.8 5.5 5.5 0 00-7.2-2.8zM863.8 309.8a5.5 5.5 0 106.9 3.5 5.5 5.5 0 00-6.9-3.5zM878.5 364.5a5.5 5.5 0 10-6.5-4.2 5.5 5.5 0 006.5 4.2zM879 404.9a5.5 5.5 0 105-6 5.5 5.5 0 00-5 6zM885 490.2a5.5 5.5 0 105 6 5.5 5.5 0 00-5-6zM878.5 535.5a5.5 5.5 0 104.2 6.5 5.5 5.5 0 00-4.2-6.5zM867.2 579.8a5.5 5.5 0 103.5 6.9 5.5 5.5 0 00-3.5-6.9zM851.3 622.7a5.5 5.5 0 102.8 7.2 5.5 5.5 0 00-2.8-7.2zM806.7 702.4a5.5 5.5 0 101.2 7.6 5.5 5.5 0 00-1.2-7.6zM770.6 738.7a5.5 5.5 0 107.7-.4 5.5 5.5 0 00-7.7.4zM738.7 770.6a5.5 5.5 0 107.7.4 5.5 5.5 0 00-7.7-.4zM703.6 799a5.5 5.5 0 107.6 1.2 5.5 5.5 0 00-7.6-1.2zM625.5 844.1a5.5 5.5 0 107.2 2.8 5.5 5.5 0 00-7.2-2.8zM583.3 860.3a5.5 5.5 0 106.9 3.5 5.5 5.5 0 00-6.9-3.5zM539.7 872a5.5 5.5 0 106.5 4.2 5.5 5.5 0 00-6.5-4.2zM495.1 879a5.5 5.5 0 106 5 5.5 5.5 0 00-6-5zM404.9 879a5.5 5.5 0 104.9 6 5.5 5.5 0 00-4.9-6zM360.3 872a5.5 5.5 0 104.2 6.5 5.5 5.5 0 00-4.2-6.5zM316.7 860.3a5.5 5.5 0 103.5 6.9 5.5 5.5 0 00-3.5-6.9zM274.5 844.1a5.5 5.5 0 102.8 7.2 5.5 5.5 0 00-2.8-7.2zM196.4 799a5.5 5.5 0 101.2 7.6 5.5 5.5 0 00-1.2-7.6zM153.6 771a5.5 5.5 0 107.7-.4 5.5 5.5 0 00-7.7.4zM121.7 738.3a5.5 5.5 0 107.7.4 5.5 5.5 0 00-7.7-.4zM93.3 702.4a5.5 5.5 0 107.7 1.2 5.5 5.5 0 00-7.7-1.2zM48.7 622.7a5.5 5.5 0 107.2 2.8 5.5 5.5 0 00-7.2-2.8zM32.8 579.8a5.5 5.5 0 106.9 3.5 5.5 5.5 0 00-6.9-3.5zM21.5 535.5a5.5 5.5 0 106.5 4.2 5.5 5.5 0 00-6.5-4.2zM21 495.1a5.5 5.5 0 10-5 6 5.5 5.5 0 005-6zM15 409.8a5.5 5.5 0 10-5-6 5.5 5.5 0 005 6zM23.8 353.8a5.5 5.5 0 104.2 6.5 5.5 5.5 0 00-4.2-6.5zM36.2 309.8a5.5 5.5 0 103.5 6.9 5.5 5.5 0 00-3.5-6.9zM53.1 267.3a5.5 5.5 0 102.8 7.2 5.5 5.5 0 00-2.8-7.2zM99.8 188.8a5.5 5.5 0 101.2 7.6 5.5 5.5 0 00-1.2-7.6zM121.3 154a5.5 5.5 0 107.7-.4 5.5 5.5 0 00-7.7.4zM154 121.3a5.5 5.5 0 107.7.4 5.5 5.5 0 00-7.7-.4zM190 92.1a5.5 5.5 0 107.6 1.2 5.5 5.5 0 00-7.6-1.2zM270 45.9a5.5 5.5 0 107.3 2.8 5.5 5.5 0 00-7.2-2.8zM313.3 29.3a5.5 5.5 0 106.9 3.5 5.5 5.5 0 00-6.9-3.5zM358 17.3a5.5 5.5 0 106.5 4.2 5.5 5.5 0 00-6.5-4.2zM403.8 10a5.5 5.5 0 106 5 5.5 5.5 0 00-6-5z"/><path class="cls-2" d="M675 60.3a13.1 13.1 0 104.8 17.9 13.1 13.1 0 00-4.8-18zM821.8 220.2a13.1 13.1 0 1018 4.8 13.1 13.1 0 00-18-4.8z"/><circle class="cls-2" cx="886.9" cy="450" r="13.1"/><path class="cls-2" d="M835 657.1a13.1 13.1 0 104.7 17.9 13.1 13.1 0 00-4.8-17.9zM661.9 817a13.1 13.1 0 1017.9 4.8 13.1 13.1 0 00-18-4.8z"/><circle class="cls-2" cx="450" cy="886.9" r="13.1" transform="rotate(-23.1 450 886.9)"/><path class="cls-2" d="M238.1 817a13.1 13.1 0 104.8 17.9 13.1 13.1 0 00-4.8-17.9zM65 657.1a13.1 13.1 0 1018 4.8 13.1 13.1 0 00-18-4.8z"/><circle class="cls-2" cx="13.1" cy="450" r="13.1"/><path class="cls-2" d="M78.2 220.2a13.1 13.1 0 104.8 18 13.1 13.1 0 00-4.8-18zM225 60.3a13.1 13.1 0 1017.9 4.8 13.1 13.1 0 00-17.9-4.8z"/><circle class="cls-2" cx="450" cy="13.1" r="13.1" transform="rotate(-23.1 450 13.1)"/></g></g></svg>