<svg xmlns="http://www.w3.org/2000/svg" viewBox="0 0 599.7 601.4"><defs><style>.cls-1{fill:#fff}.cls-2{fill:#b2b2b5}.cls-3{fill:#8f9193}</style></defs><g id="Layer_2" data-name="Layer 2"><g id="Layer_1-2" data-name="Layer 1"><path class="cls-1" transform="rotate(-6 269.3 9)" d="M268.2 1.6h2v14.6h-2z"/><path class="cls-1" transform="rotate(-12 239 13.7)" d="M238 6.4h2V21h-2z"/><path class="cls-1" transform="rotate(-18 209.4 21.7)" d="M208.4 14.3h2v14.6h-2z"/><path class="cls-1" transform="rotate(-24 180.8 32.6)" d="M179.8 25.3h2v14.6h-2z"/><path class="cls-1" transform="rotate(-36 127.9 63.2)" d="M126.9 55.9h2v14.6h-2z"/><path class="cls-1" transform="rotate(-42 104.1 82.5)" d="M103.1 75.1h2v14.6h-2z"/><path class="cls-1" transform="rotate(-48 82.4 104.1)" d="M81.4 96.8h2v14.6h-2z"/><path class="cls-1" transform="rotate(-54 63.2 127.9)" d="M62.2 120.6h2v14.6h-2z"/><path class="cls-1" transform="rotate(-66 32.6 180.9)" d="M31.6 173.5h2v14.6h-2z"/><path class="cls-1" transform="rotate(-72 21.6 209.4)" d="M20.6 202.1h2v14.6h-2z"/><path class="cls-1" transform="rotate(-78 13.7 239)" d="M12.7 231.7h2v14.6h-2z"/><path class="cls-1" transform="rotate(-84 9 269.3)" d="M7.9 261.9h2v14.6h-2z"/><path class="cls-1" transform="rotate(-96 9 330.4)" d="M7.9 323.1h2v14.6h-2z"/><path class="cls-1" transform="rotate(-102 13.7 360.7)" d="M12.7 353.3h2v14.6h-2z"/><path class="cls-1" transform="rotate(-108 21.6 390.2)" d="M20.6 382.9h2v14.6h-2z"/><path class="cls-1" transform="rotate(-114 32.6 418.8)" d="M31.6 411.5h2v14.6h-2z"/><path class="cls-1" transform="rotate(-126 63.2 471.8)" d="M62.2 464.4h2V479h-2z"/><path class="cls-1" transform="rotate(-132 82.5 495.6)" d="M81.4 488.3h2v14.6h-2z"/><path class="cls-1" transform="rotate(-138 104.1 517.2)" d="M103.1 509.9h2v14.6h-2z"/><path class="cls-1" transform="rotate(-144 127.9 536.5)" d="M126.9 529.2h2v14.6h-2z"/><path class="cls-1" transform="rotate(-156 180.9 567)" d="M179.8 559.7h2v14.6h-2z"/><path class="cls-1" transform="rotate(-162 209.4 578)" d="M208.4 570.7h2v14.6h-2z"/><path class="cls-1" transform="rotate(-168 239 586)" d="M238 578.6h2v14.6h-2z"/><path class="cls-1" transform="rotate(-174 269.3 590.7)" d="M268.2 583.4h2V598h-2z"/><path class="cls-1" transform="rotate(174 330.4 590.8)" d="M329.4 583.4h2V598h-2z"/><path class="cls-1" transform="rotate(168 360.6 586)" d="M359.6 578.6h2v14.6h-2z"/><path class="cls-1" transform="rotate(162 390.2 578)" d="M389.2 570.7h2v14.6h-2z"/><path class="cls-1" transform="rotate(156 418.8 567)" d="M417.8 559.7h2v14.6h-2z"/><path class="cls-1" transform="rotate(144 471.8 536.5)" d="M470.8 529.2h2v14.6h-2z"/><path class="cls-1" transform="rotate(138 495.6 517.2)" d="M494.6 509.9h2v14.6h-2z"/><path class="cls-1" transform="rotate(132 517.2 495.6)" d="M516.2 488.3h2v14.6h-2z"/><path class="cls-1" transform="rotate(126 536.5 471.7)" d="M535.5 464.4h2V479h-2z"/><path class="cls-1" transform="rotate(114 567 418.8)" d="M566 411.5h2v14.6h-2z"/><path class="cls-1" transform="rotate(108 578 390.2)" d="M577 382.9h2v14.6h-2z"/><path class="cls-1" transform="rotate(102 586 360.7)" d="M584.9 353.3h2v14.6h-2z"/><path class="cls-1" transform="rotate(96 590.7 330.4)" d="M589.7 323.1h2v14.6h-2z"/><path class="cls-1" transform="rotate(84 590.7 269.3)" d="M589.7 261.9h2v14.6h-2z"/><path class="cls-1" transform="rotate(78 586 239)" d="M584.9 231.7h2v14.6h-2z"/><path class="cls-1" transform="rotate(72 578 209.4)" d="M577 202.1h2v14.6h-2z"/><path class="cls-1" transform="rotate(66 567 180.9)" d="M566 173.5h2v14.6h-2z"/><path class="cls-1" transform="rotate(54 536.4 127.9)" d="M535.5 120.6h2v14.6h-2z"/><path class="cls-1" transform="rotate(48 517.2 104.1)" d="M516.2 96.8h2v14.6h-2z"/><path class="cls-1" transform="rotate(42 495.6 82.5)" d="M494.6 75.1h2v14.6h-2z"/><path class="cls-1" transform="rotate(36 471.7 63.2)" d="M470.8 55.9h2v14.6h-2z"/><path class="cls-1" transform="rotate(24 418.8 32.6)" d="M417.8 25.3h2v14.6h-2z"/><path class="cls-1" transform="rotate(18 390.2 21.6)" d="M389.2 14.3h2v14.6h-2z"/><path class="cls-1" transform="rotate(11.5 357.4 17.1)" d="M359.6 6.4h2V21h-2z"/><path class="cls-1" transform="rotate(6 330.3 8.9)" d="M329.4 1.6h2v14.6h-2z"/><path class="cls-1" d="M297.5 0h4.6v25.3h-4.6z"/><path class="cls-1" transform="rotate(-30 156.2 51.1)" d="M153.9 38.5h4.6v25.3h-4.6z"/><path class="cls-1" transform="rotate(-60 51.1 156.2)" d="M48.8 143.6h4.6v25.3h-4.6z"/><path class="cls-1" transform="rotate(-90 12.7 299.8)" d="M10.4 287.2H15v25.3h-4.6z"/><path class="cls-1" transform="rotate(-120 51.1 443.4)" d="M48.8 430.8h4.6v25.3h-4.6z"/><path class="cls-1" transform="rotate(-150 156.2 548.5)" d="M153.9 535.9h4.6v25.3h-4.6z"/><path class="cls-1" transform="rotate(180 299.8 587)" d="M297.5 574.4h4.6v25.3h-4.6z"/><path class="cls-1" transform="rotate(150 443.4 548.5)" d="M441.1 535.9h4.6v25.3h-4.6z"/><path class="cls-1" transform="rotate(120 548.5 443.4)" d="M546.3 430.8h4.6v25.3h-4.6z"/><path class="cls-1" transform="rotate(90 587 299.8)" d="M584.7 287.2h4.6v25.3h-4.6z"/><path class="cls-1" transform="rotate(60 548.6 156.3)" d="M546.3 143.6h4.6v25.3h-4.6z"/><path class="cls-1" transform="rotate(30 443.4 51.1)" d="M441.1 38.5h4.6v25.3h-4.6z"/><path class="cls-2" transform="rotate(-6 269.1 10.7)" d="M268.2 3.3h2v14.6h-2z"/><path class="cls-2" transform="rotate(-12 239 15.4)" d="M238 8.1h2v14.6h-2z"/><path class="cls-2" transform="rotate(-18 209.4 23.4)" d="M208.4 16h2v14.6h-2z"/><path class="cls-2" transform="rotate(-24 180.8 34.3)" d="M179.8 27h2v14.6h-2z"/><path class="cls-2" transform="rotate(-36 127.9 64.9)" d="M126.9 57.6h2v14.6h-2z"/><path class="cls-2" transform="rotate(-42 104.1 84.2)" d="M103.1 76.9h2v14.6h-2z"/><path class="cls-2" transform="rotate(-48 82.4 105.8)" d="M81.4 98.5h2v14.6h-2z"/><path class="cls-2" transform="rotate(-54 63.2 129.6)" d="M62.2 122.3h2v14.6h-2z"/><path class="cls-2" transform="rotate(-66 32.6 182.6)" d="M31.6 175.3h2v14.6h-2z"/><path class="cls-2" transform="rotate(-72 21.6 211.2)" d="M20.6 203.8h2v14.6h-2z"/><path class="cls-2" transform="rotate(-78 13.7 240.8)" d="M12.7 233.4h2V248h-2z"/><path class="cls-2" transform="rotate(-84 9 271)" d="M7.9 263.7h2v14.6h-2z"/><path class="cls-2" transform="scale(-1) rotate(84.2 369.9 -10.7)" d="M7.9 324.8h2v14.6h-2z"/><path class="cls-2" transform="rotate(-102 13.7 362.4)" d="M12.7 355.1h2v14.6h-2z"/><path class="cls-2" transform="rotate(-108 21.6 392)" d="M20.6 384.6h2v14.6h-2z"/><path class="cls-2" transform="rotate(-114 32.6 420.5)" d="M31.6 413.2h2v14.6h-2z"/><path class="cls-2" transform="rotate(-126.2 63 472.9)" d="M62.2 466.2h2v14.6h-2z"/><path class="cls-2" transform="rotate(-132 82.5 497.3)" d="M81.4 490h2v14.6h-2z"/><path class="cls-2" transform="rotate(-138 104.1 519)" d="M103.1 511.6h2v14.6h-2z"/><path class="cls-2" transform="rotate(-144 128 538.2)" d="M126.9 530.9h2v14.6h-2z"/><path class="cls-2" transform="rotate(-156 180.9 568.8)" d="M179.8 561.5h2v14.6h-2z"/><path class="cls-2" transform="rotate(-162 209.4 579.8)" d="M208.4 572.4h2V587h-2z"/><path class="cls-2" transform="rotate(-168 239 587.7)" d="M238 580.4h2V595h-2z"/><path class="cls-2" transform="rotate(-174 269.3 592.5)" d="M268.2 585.1h2v14.6h-2z"/><path class="cls-2" transform="rotate(174 330.4 592.5)" d="M329.4 585.1h2v14.6h-2z"/><path class="cls-2" transform="rotate(168 360.6 587.7)" d="M359.6 580.4h2V595h-2z"/><path class="cls-2" transform="rotate(162 390.2 579.8)" d="M389.2 572.4h2V587h-2z"/><path class="cls-2" transform="rotate(156 418.8 568.8)" d="M417.8 561.5h2v14.6h-2z"/><path class="cls-2" transform="rotate(144 471.8 538.2)" d="M470.8 530.9h2v14.6h-2z"/><path class="cls-2" transform="rotate(138 495.6 519)" d="M494.6 511.6h2v14.6h-2z"/><path class="cls-2" transform="rotate(132 517.2 497.3)" d="M516.2 490h2v14.6h-2z"/><path class="cls-2" transform="rotate(126 536.5 473.5)" d="M535.5 466.2h2v14.6h-2z"/><path class="cls-2" transform="rotate(114 567 420.5)" d="M566 413.2h2v14.6h-2z"/><path class="cls-2" transform="rotate(108 578 392)" d="M577 384.6h2v14.6h-2z"/><path class="cls-2" transform="rotate(102 586 362.4)" d="M584.9 355.1h2v14.6h-2z"/><path class="cls-2" transform="rotate(96 590.8 332.1)" d="M589.7 324.8h2v14.6h-2z"/><path class="cls-2" transform="rotate(84 590.8 271)" d="M589.7 263.7h2v14.6h-2z"/><path class="cls-2" transform="rotate(78 586 240.7)" d="M584.9 233.4h2V248h-2z"/><path class="cls-2" transform="rotate(72 578 211.2)" d="M577 203.8h2v14.6h-2z"/><path class="cls-2" transform="rotate(66 567 182.6)" d="M566 175.3h2v14.6h-2z"/><path class="cls-2" transform="rotate(54 536.5 129.6)" d="M535.5 122.3h2v14.6h-2z"/><path class="cls-2" transform="rotate(48 517.2 105.8)" d="M516.2 98.5h2v14.6h-2z"/><path class="cls-2" transform="rotate(42 495.6 84.2)" d="M494.6 76.9h2v14.6h-2z"/><path class="cls-2" transform="rotate(36 471.7 64.9)" d="M470.8 57.6h2v14.6h-2z"/><path class="cls-2" transform="rotate(24 418.8 34.3)" d="M417.8 27h2v14.6h-2z"/><path class="cls-2" transform="rotate(18 390.2 23.3)" d="M389.2 16h2v14.6h-2z"/><path class="cls-2" transform="rotate(11.5 357.4 18.8)" d="M359.6 8.1h2v14.6h-2z"/><path class="cls-2" transform="rotate(6 330.2 10.6)" d="M329.4 3.3h2v14.6h-2z"/><path class="cls-3" d="M297.5 1.7h4.6V27h-4.6z"/><path class="cls-3" transform="rotate(-30 156.2 52.8)" d="M153.9 40.2h4.6v25.3h-4.6z"/><path class="cls-3" transform="rotate(-60 51.1 158)" d="M48.8 145.3h4.6v25.3h-4.6z"/><path class="cls-3" transform="rotate(-90 12.7 301.6)" d="M10.4 288.9H15v25.3h-4.6z"/><path class="cls-3" transform="rotate(-120 51.1 445.2)" d="M48.8 432.5h4.6v25.3h-4.6z"/><path class="cls-3" transform="rotate(-150 156.2 550.3)" d="M153.9 537.6h4.6v25.3h-4.6z"/><path class="cls-3" transform="rotate(180 299.8 588.7)" d="M297.5 576.1h4.6v25.3h-4.6z"/><path class="cls-3" transform="rotate(150 443.4 550.3)" d="M441.1 537.6h4.6v25.3h-4.6z"/><path class="cls-3" transform="rotate(120 548.5 445.1)" d="M546.3 432.5h4.6v25.3h-4.6z"/><path class="cls-3" transform="rotate(90 587 301.6)" d="M584.7 288.9h4.6v25.3h-4.6z"/><path class="cls-3" transform="rotate(60 548.6 158)" d="M546.3 145.3h4.6v25.3h-4.6z"/><path class="cls-3" transform="rotate(30 443.4 52.8)" d="M441.1 40.2h4.6v25.3h-4.6z"/></g></g></svg>