<svg xmlns="http://www.w3.org/2000/svg" viewBox="0 0 720 720"><defs><style>.cls-1{fill:#0d9bd5;}</style></defs><g id="Layer_2" data-name="Layer 2"><path class="cls-1" d="M140.41,95.86A11.13,11.13,0,1,0,151.54,107a11.14,11.14,0,0,0-11.13-11.13"/><path class="cls-1" d="M689.37,514.05a11.13,11.13,0,1,0-11.13-11.13,11.13,11.13,0,0,0,11.13,11.13"/><path class="cls-1" d="M151.54,189.49a11.13,11.13,0,1,1-11.12-11.12,11.12,11.12,0,0,1,11.12,11.12"/><path class="cls-1" d="M151.54,414.11A11.13,11.13,0,1,1,140.42,403a11.12,11.12,0,0,1,11.12,11.12"/><path class="cls-1" d="M151.54,628.83a11.13,11.13,0,1,1-11.12-11.13,11.12,11.12,0,0,1,11.12,11.13"/><path class="cls-1" d="M678.24,211.8a11.13,11.13,0,1,1,11.13,11.12,11.13,11.13,0,0,1-11.13-11.12"/><path class="cls-1" d="M151.54,84.74a11.13,11.13,0,1,1-11.12-11.13,11.12,11.12,0,0,1,11.12,11.13"/><path class="cls-1" d="M678.24,525.18a11.13,11.13,0,1,1,11.13,11.12,11.12,11.12,0,0,1-11.13-11.12"/><path class="cls-1" d="M129.29,297a11.13,11.13,0,1,1,11.12,11.12A11.12,11.12,0,0,1,129.29,297"/><path class="cls-1" d="M700.49,345.29a11.12,11.12,0,1,1-11.13-11.12,11.13,11.13,0,0,1,11.13,11.12"/><path class="cls-1" d="M129.29,319.28a11.13,11.13,0,1,1,11.12,11.13,11.12,11.12,0,0,1-11.12-11.13"/><path class="cls-1" d="M700.49,323a11.12,11.12,0,1,1-11.13-11.12A11.12,11.12,0,0,1,700.49,323"/><path class="cls-1" d="M129.29,274.78a11.13,11.13,0,1,1,11.12,11.12,11.12,11.12,0,0,1-11.12-11.12"/><path class="cls-1" d="M700.49,367.54a11.12,11.12,0,1,1-11.13-11.12,11.13,11.13,0,0,1,11.13,11.12"/><path class="cls-1" d="M41.75,206.22a11.13,11.13,0,1,1-11.12-11.13,11.12,11.12,0,0,1,11.12,11.13"/><path class="cls-1" d="M41.75,476.37a11.13,11.13,0,1,1-11.12-11.12,11.12,11.12,0,0,1,11.12,11.12"/><path class="cls-1" d="M41.75,356.53A11.13,11.13,0,1,1,30.63,345.4a11.12,11.12,0,0,1,11.12,11.13"/><path class="cls-1" d="M41.75,250.72a11.13,11.13,0,1,1-11.12-11.13,11.12,11.12,0,0,1,11.12,11.13"/><path class="cls-1" d="M41.75,228.47a11.13,11.13,0,1,1-11.12-11.13,11.12,11.12,0,0,1,11.12,11.13"/><path class="cls-1" d="M41.75,498.62A11.13,11.13,0,1,1,30.63,487.5a11.12,11.12,0,0,1,11.12,11.12"/><path class="cls-1" d="M41.75,520.88a11.13,11.13,0,1,1-11.12-11.13,11.12,11.12,0,0,1,11.12,11.13"/><path class="cls-1" d="M568.45,436.35a11.13,11.13,0,1,1,11.13,11.12,11.13,11.13,0,0,1-11.13-11.12"/><path class="cls-1" d="M568.45,323.8a11.13,11.13,0,1,1,11.13,11.12,11.13,11.13,0,0,1-11.13-11.12"/><path class="cls-1" d="M568.45,638.38a11.13,11.13,0,1,1,11.13,11.13,11.12,11.12,0,0,1-11.13-11.13"/><path class="cls-1" d="M568.45,181.43a11.13,11.13,0,1,1,11.13,11.12,11.12,11.12,0,0,1-11.13-11.12"/><path class="cls-1" d="M579.58,290.42a11.13,11.13,0,1,1,11.13-11.12,11.12,11.12,0,0,1-11.13,11.12"/><path class="cls-1" d="M579.58,605a11.13,11.13,0,1,1,11.13-11.13A11.13,11.13,0,0,1,579.58,605"/><path class="cls-1" d="M568.45,301.55a11.13,11.13,0,1,1,11.13,11.12,11.13,11.13,0,0,1-11.13-11.12"/><path class="cls-1" d="M568.45,616.13a11.13,11.13,0,1,1,11.13,11.13,11.12,11.12,0,0,1-11.13-11.13"/><path class="cls-1" d="M568.45,458.6a11.13,11.13,0,1,1,11.13,11.12,11.13,11.13,0,0,1-11.13-11.12"/><path class="cls-1" d="M469.79,182.94a11.13,11.13,0,1,0-11.13-11.13,11.13,11.13,0,0,0,11.13,11.13"/><path class="cls-1" d="M469.79,681.1A11.13,11.13,0,1,0,458.66,670a11.14,11.14,0,0,0,11.13,11.13"/><path class="cls-1" d="M458.66,450.7a11.13,11.13,0,1,1,11.13,11.12,11.12,11.12,0,0,1-11.13-11.12"/><path class="cls-1" d="M458.66,295.69a11.13,11.13,0,1,1,11.13,11.12,11.12,11.12,0,0,1-11.13-11.12"/><path class="cls-1" d="M458.66,533a11.13,11.13,0,1,1,11.13,11.13A11.13,11.13,0,0,1,458.66,533"/><path class="cls-1" d="M458.66,194.07a11.13,11.13,0,1,1,11.13,11.12,11.13,11.13,0,0,1-11.13-11.12"/><path class="cls-1" d="M458.66,692.22a11.13,11.13,0,1,1,11.13,11.13,11.13,11.13,0,0,1-11.13-11.13"/><path class="cls-1" d="M469.79,417.32a11.12,11.12,0,1,1,11.12-11.12,11.12,11.12,0,0,1-11.12,11.12"/><path class="cls-1" d="M458.66,428.45a11.13,11.13,0,1,1,11.13,11.12,11.12,11.12,0,0,1-11.13-11.12"/><path class="cls-1" d="M458.66,47.86A11.13,11.13,0,1,1,469.79,59a11.12,11.12,0,0,1-11.13-11.13"/><path class="cls-1" d="M458.66,70.11a11.13,11.13,0,1,1,11.13,11.13,11.13,11.13,0,0,1-11.13-11.13"/><path class="cls-1" d="M458.66,25.61a11.13,11.13,0,1,1,11.13,11.12,11.12,11.12,0,0,1-11.13-11.12"/><path class="cls-1" d="M239.08,561a11.13,11.13,0,1,1,11.12,11.12A11.12,11.12,0,0,1,239.08,561"/><path class="cls-1" d="M250.21,527.66a11.13,11.13,0,1,1,11.12-11.13,11.13,11.13,0,0,1-11.12,11.13"/><path class="cls-1" d="M239.08,538.78a11.13,11.13,0,1,1,11.12,11.13,11.12,11.12,0,0,1-11.12-11.13"/><path class="cls-1" d="M239.08,25.61A11.13,11.13,0,1,1,250.2,36.73a11.12,11.12,0,0,1-11.12-11.12"/><path class="cls-1" d="M239.08,390.27A11.13,11.13,0,1,1,250.2,401.4a11.12,11.12,0,0,1-11.12-11.13"/><path class="cls-1" d="M239.08,668.18A11.13,11.13,0,1,1,250.2,679.3a11.12,11.12,0,0,1-11.12-11.12"/><path class="cls-1" d="M239.08,167.27A11.13,11.13,0,1,1,250.2,178.4a11.12,11.12,0,0,1-11.12-11.13"/><path class="cls-1" d="M250.21,133.9a11.13,11.13,0,1,1,11.12-11.13,11.13,11.13,0,0,1-11.12,11.13"/><path class="cls-1" d="M579.58,90a11.13,11.13,0,1,1,11.13-11.13A11.13,11.13,0,0,1,579.58,90"/><path class="cls-1" d="M239.08,145a11.13,11.13,0,1,1,11.12,11.13A11.12,11.12,0,0,1,239.08,145"/><path class="cls-1" d="M568.45,101.08a11.13,11.13,0,1,1,11.13,11.13,11.12,11.12,0,0,1-11.13-11.13"/><path class="cls-1" d="M239.08,267.54a11.13,11.13,0,1,1,11.12,11.12,11.12,11.12,0,0,1-11.12-11.12"/><path class="cls-1" d="M239.08,412.52a11.13,11.13,0,1,1,11.12,11.13,11.12,11.12,0,0,1-11.12-11.13"/><path class="cls-1" d="M239.08,690.43a11.13,11.13,0,1,1,11.12,11.12,11.12,11.12,0,0,1-11.12-11.12"/><path class="cls-1" d="M371.12,279.32A11.13,11.13,0,1,1,360,268.2a11.12,11.12,0,0,1,11.12,11.12"/><path class="cls-1" d="M371.12,11.13A11.13,11.13,0,1,1,360,0a11.12,11.12,0,0,1,11.12,11.13"/><path class="cls-1" d="M371.12,518.73A11.13,11.13,0,1,1,360,507.6a11.12,11.12,0,0,1,11.12,11.13"/><path class="cls-1" d="M371.12,664.37A11.13,11.13,0,1,1,360,653.25a11.12,11.12,0,0,1,11.12,11.12"/><path class="cls-1" d="M371.12,414.33A11.13,11.13,0,1,1,360,403.2a11.12,11.12,0,0,1,11.12,11.13"/><path class="cls-1" d="M371.12,301.58A11.13,11.13,0,1,1,360,290.45a11.12,11.12,0,0,1,11.12,11.13"/><path class="cls-1" d="M371.12,33.38A11.13,11.13,0,1,1,360,22.25a11.12,11.12,0,0,1,11.12,11.13"/><path class="cls-1" d="M371.12,541A11.13,11.13,0,1,1,360,529.85,11.12,11.12,0,0,1,371.12,541"/><path class="cls-1" d="M371.12,686.62A11.13,11.13,0,1,1,360,675.5a11.12,11.12,0,0,1,11.12,11.12"/><path class="cls-1" d="M371.12,563.23A11.13,11.13,0,1,1,360,552.11a11.12,11.12,0,0,1,11.12,11.12"/><path class="cls-1" d="M371.12,708.87A11.13,11.13,0,1,1,360,697.75a11.12,11.12,0,0,1,11.12,11.12"/><path class="cls-1" d="M371.12,131.81A11.13,11.13,0,1,1,360,120.69a11.12,11.12,0,0,1,11.12,11.12"/><path class="cls-1" d="M371.12,109.56A11.13,11.13,0,1,1,360,98.44a11.12,11.12,0,0,1,11.12,11.12"/><path class="cls-1" d="M371.12,154.06A11.13,11.13,0,1,1,360,142.94a11.12,11.12,0,0,1,11.12,11.12"/><path class="cls-1" d="M151.54,532.22a11.13,11.13,0,1,1-11.12-11.12,11.12,11.12,0,0,1,11.12,11.12"/><path class="cls-1" d="M151.54,510a11.13,11.13,0,1,1-11.12-11.12A11.12,11.12,0,0,1,151.54,510"/><path class="cls-1" d="M678.24,189.55a11.13,11.13,0,1,1,11.13,11.12,11.13,11.13,0,0,1-11.13-11.12"/><path class="cls-1" d="M151.54,554.47a11.13,11.13,0,1,1-11.12-11.12,11.12,11.12,0,0,1,11.12,11.12"/></g></svg>