<svg xmlns="http://www.w3.org/2000/svg" viewBox="0 0 407.9 83.9"><g id="Layer_2" data-name="Layer 2"><g id="t"><path d="M393.4,13.4V25.9h12.5V38.2H393.4V50.7c0,5.1,2.3,5.8,5.6,6h2.1l5.7-.4,1.1,11s-4,1.9-12.1,1.9S382.7,64.9,381,58.5a22.7,22.7,0,0,1-.7-5.9V13.4Z" style="fill:#0c3258"/></g><g id="n"><path d="M369.6,28.8a16.9,16.9,0,0,0-11.7-4.3c-5.2,0-9.2,1.9-13,4.3h0l-1-2.9H332.7V67.6h13.1V37.3c4-1.6,9.9-3,13.4.2,1.3,1.2,1.8,3.1,1.8,5.6V67.6h13.1V39.9q0-7-4.5-11.1" style="fill:#0c3258"/></g><g id="i-stem"><path d="M312.4,31V67.6h13V31a23.9,23.9,0,0,1-13,0" style="fill:#0c3258"/></g><g id="i-dot"><path d="M318.9,0a9.7,9.7,0,1,0,9.6,9.6A9.6,9.6,0,0,0,318.9,0" style="fill:#0d9bd5"/></g><g id="o-point"><path d="M284.8,37.2a9.6,9.6,0,0,0-9.6,10.2,9.8,9.8,0,0,0,9.1,9.1,9.7,9.7,0,1,0,.5-19.3m22.3,9.7A22.3,22.3,0,0,1,284,69.2a22.6,22.6,0,0,1-21.5-21.5,22.3,22.3,0,1,1,44.6-.8" style="fill:#0c3258"/></g><g id="p"><path d="M235.8,57.1a20.5,20.5,0,0,1-7.5-1.7V37.3a20.5,20.5,0,0,1,7.5-1.7c3.2,0,9.5.6,9.5,10.8s-6.3,10.7-9.5,10.7m13.9-30.2a18.4,18.4,0,0,0-9.8-2.3,23.4,23.4,0,0,0-12.5,4.2l-1-2.9H215.2v58h13.1V64.5a23,23,0,0,0,11.6,3.7,18.8,18.8,0,0,0,9.8-2.4c4.2-2.5,8.4-8.6,8.4-19.4s-4.2-17-8.4-19.5" style="fill:#0c3258"/></g><g id="e"><path d="M181.5,43s1.5-7.9,9.4-7.9,7.9,7.9,7.9,7.9Zm9.1-18.4c-13.2,0-22.1,9.4-21.9,23a22.1,22.1,0,0,0,21.9,21.6,38.7,38.7,0,0,0,17.6-3.7l-1.6-9.8s-5,2.3-14,2.3c-5.8,0-9.5-3.2-10.3-6.8h26.9c3.8-15.7-6.3-26.6-18.6-26.6" style="fill:#0c3258"/></g><g id="m"><path d="M159,28.8a16.9,16.9,0,0,0-11.7-4.3c-5.8,0-10.2,2.4-14.4,5.2l-.9-.9a16.9,16.9,0,0,0-11.7-4.3,22.9,22.9,0,0,0-11.9,3.6l-.8-2.2H96.4V67.6h13.1V37.5c3.7-1.6,9.1-3,12.3.2a8,8,0,0,1,1.7,5.5V67.6h13V37.5c3.6-1.6,9-3,12.2.2,1.2,1.2,1.7,3.1,1.7,5.5V67.6h13.1V39.9q0-7-4.5-11.1" style="fill:#0c3258"/></g><g id="o-home"><path d="M68.9,37.2a9.7,9.7,0,1,0,9.6,9.7,9.6,9.6,0,0,0-9.6-9.7m22.3,9.7A22.3,22.3,0,1,1,68.9,24.6,22.3,22.3,0,0,1,91.2,46.9" style="fill:#0c3258"/></g><g id="h"><path d="M13.1,8.7V28.3a22,22,0,0,1,12.1-3.8,16.9,16.9,0,0,1,11.7,4.3q4.5,4.1,4.5,11.1V67.6H28.3V43.1c0-2.5-.6-4.4-1.8-5.6-3.5-3.2-9.4-1.8-13.4-.2V67.6H0V8.7Z" style="fill:#0c3258"/></g></g></svg>